<mxfile host="app.diagrams.net" modified="2024-03-15T05:38:28.952Z" agent="Mozilla/5.0 (X11; Linux x86_64) AppleWebKit/537.36 (KHTML, like Gecko) Chrome/121.0.0.0 Safari/537.36" etag="RrQdwU_bVVlmUizR_ijX" version="24.0.6" type="device">
  <diagram name="Page-1" id="S8LUkxNlKt3-Wo6mKbvY">
    <mxGraphModel dx="880" dy="442" grid="1" gridSize="10" guides="1" tooltips="1" connect="1" arrows="1" fold="1" page="1" pageScale="1" pageWidth="850" pageHeight="1100" math="0" shadow="0">
      <root>
        <mxCell id="0" />
        <mxCell id="1" parent="0" />
        <mxCell id="GZrmVflzHb7Xg0ygnJ54-1" value="&lt;font style=&quot;font-size: 40px;&quot;&gt;stack1&lt;/font&gt;" style="rounded=0;whiteSpace=wrap;html=1;" vertex="1" parent="1">
          <mxGeometry x="160" y="40" width="120" height="60" as="geometry" />
        </mxCell>
        <mxCell id="GZrmVflzHb7Xg0ygnJ54-2" value="&lt;font style=&quot;font-size: 40px;&quot;&gt;stack2&lt;/font&gt;" style="rounded=0;whiteSpace=wrap;html=1;" vertex="1" parent="1">
          <mxGeometry x="560" y="40" width="120" height="60" as="geometry" />
        </mxCell>
        <mxCell id="GZrmVflzHb7Xg0ygnJ54-3" value="&lt;font style=&quot;font-size: 40px;&quot;&gt;bottom&lt;/font&gt;" style="rounded=0;whiteSpace=wrap;html=1;" vertex="1" parent="1">
          <mxGeometry x="80" y="160" width="120" height="60" as="geometry" />
        </mxCell>
        <mxCell id="GZrmVflzHb7Xg0ygnJ54-4" value="&lt;font style=&quot;font-size: 40px;&quot;&gt;top&lt;/font&gt;" style="rounded=0;whiteSpace=wrap;html=1;" vertex="1" parent="1">
          <mxGeometry x="240" y="160" width="120" height="60" as="geometry" />
        </mxCell>
        <mxCell id="GZrmVflzHb7Xg0ygnJ54-5" value="&lt;font style=&quot;font-size: 40px;&quot;&gt;bottom&lt;/font&gt;" style="rounded=0;whiteSpace=wrap;html=1;" vertex="1" parent="1">
          <mxGeometry x="480" y="160" width="120" height="60" as="geometry" />
        </mxCell>
        <mxCell id="GZrmVflzHb7Xg0ygnJ54-6" value="&lt;font style=&quot;font-size: 40px;&quot;&gt;top&lt;/font&gt;" style="rounded=0;whiteSpace=wrap;html=1;" vertex="1" parent="1">
          <mxGeometry x="640" y="160" width="120" height="60" as="geometry" />
        </mxCell>
        <mxCell id="GZrmVflzHb7Xg0ygnJ54-7" value="&lt;font style=&quot;font-size: 40px;&quot;&gt;queue&lt;/font&gt;" style="text;html=1;align=center;verticalAlign=middle;resizable=0;points=[];autosize=1;strokeColor=none;fillColor=none;" vertex="1" parent="1">
          <mxGeometry x="360" y="40" width="130" height="60" as="geometry" />
        </mxCell>
        <mxCell id="GZrmVflzHb7Xg0ygnJ54-8" value="" style="endArrow=none;html=1;rounded=0;exitX=1.038;exitY=0.567;exitDx=0;exitDy=0;exitPerimeter=0;entryX=0;entryY=0.5;entryDx=0;entryDy=0;" edge="1" parent="1" source="GZrmVflzHb7Xg0ygnJ54-7" target="GZrmVflzHb7Xg0ygnJ54-2">
          <mxGeometry width="50" height="50" relative="1" as="geometry">
            <mxPoint x="400" y="20" as="sourcePoint" />
            <mxPoint x="450" y="-30" as="targetPoint" />
          </mxGeometry>
        </mxCell>
        <mxCell id="GZrmVflzHb7Xg0ygnJ54-9" value="" style="endArrow=none;html=1;rounded=0;exitX=1;exitY=0.5;exitDx=0;exitDy=0;entryX=-0.023;entryY=0.517;entryDx=0;entryDy=0;entryPerimeter=0;" edge="1" parent="1" source="GZrmVflzHb7Xg0ygnJ54-1" target="GZrmVflzHb7Xg0ygnJ54-7">
          <mxGeometry width="50" height="50" relative="1" as="geometry">
            <mxPoint x="400" y="20" as="sourcePoint" />
            <mxPoint x="450" y="-30" as="targetPoint" />
          </mxGeometry>
        </mxCell>
        <mxCell id="GZrmVflzHb7Xg0ygnJ54-10" value="" style="endArrow=none;html=1;rounded=0;entryX=0.5;entryY=1;entryDx=0;entryDy=0;exitX=0.5;exitY=0;exitDx=0;exitDy=0;" edge="1" parent="1" source="GZrmVflzHb7Xg0ygnJ54-5" target="GZrmVflzHb7Xg0ygnJ54-2">
          <mxGeometry width="50" height="50" relative="1" as="geometry">
            <mxPoint x="400" y="260" as="sourcePoint" />
            <mxPoint x="450" y="210" as="targetPoint" />
          </mxGeometry>
        </mxCell>
        <mxCell id="GZrmVflzHb7Xg0ygnJ54-11" value="" style="endArrow=none;html=1;rounded=0;entryX=0.5;entryY=1;entryDx=0;entryDy=0;exitX=0.5;exitY=0;exitDx=0;exitDy=0;" edge="1" parent="1" source="GZrmVflzHb7Xg0ygnJ54-6" target="GZrmVflzHb7Xg0ygnJ54-2">
          <mxGeometry width="50" height="50" relative="1" as="geometry">
            <mxPoint x="400" y="260" as="sourcePoint" />
            <mxPoint x="450" y="210" as="targetPoint" />
          </mxGeometry>
        </mxCell>
        <mxCell id="GZrmVflzHb7Xg0ygnJ54-12" value="" style="endArrow=none;html=1;rounded=0;entryX=0.5;entryY=1;entryDx=0;entryDy=0;exitX=0.5;exitY=0;exitDx=0;exitDy=0;" edge="1" parent="1" source="GZrmVflzHb7Xg0ygnJ54-4" target="GZrmVflzHb7Xg0ygnJ54-1">
          <mxGeometry width="50" height="50" relative="1" as="geometry">
            <mxPoint x="400" y="260" as="sourcePoint" />
            <mxPoint x="450" y="210" as="targetPoint" />
          </mxGeometry>
        </mxCell>
        <mxCell id="GZrmVflzHb7Xg0ygnJ54-13" value="" style="endArrow=none;html=1;rounded=0;entryX=0.5;entryY=1;entryDx=0;entryDy=0;exitX=0.5;exitY=0;exitDx=0;exitDy=0;" edge="1" parent="1" source="GZrmVflzHb7Xg0ygnJ54-3" target="GZrmVflzHb7Xg0ygnJ54-1">
          <mxGeometry width="50" height="50" relative="1" as="geometry">
            <mxPoint x="400" y="260" as="sourcePoint" />
            <mxPoint x="450" y="210" as="targetPoint" />
          </mxGeometry>
        </mxCell>
        <mxCell id="GZrmVflzHb7Xg0ygnJ54-15" value="red" style="rounded=1;whiteSpace=wrap;html=1;" vertex="1" parent="1">
          <mxGeometry x="98" y="452" width="50" height="30" as="geometry" />
        </mxCell>
        <mxCell id="GZrmVflzHb7Xg0ygnJ54-16" value="NULL" style="rounded=0;whiteSpace=wrap;html=1;" vertex="1" parent="1">
          <mxGeometry x="148" y="452" width="40" height="29" as="geometry" />
        </mxCell>
        <mxCell id="GZrmVflzHb7Xg0ygnJ54-68" value="" style="edgeStyle=orthogonalEdgeStyle;rounded=0;orthogonalLoop=1;jettySize=auto;html=1;" edge="1" parent="1" source="GZrmVflzHb7Xg0ygnJ54-25" target="GZrmVflzHb7Xg0ygnJ54-59">
          <mxGeometry relative="1" as="geometry" />
        </mxCell>
        <mxCell id="GZrmVflzHb7Xg0ygnJ54-25" value="green" style="rounded=1;whiteSpace=wrap;html=1;" vertex="1" parent="1">
          <mxGeometry x="234" y="452" width="50" height="29" as="geometry" />
        </mxCell>
        <mxCell id="GZrmVflzHb7Xg0ygnJ54-26" value="100" style="rounded=0;whiteSpace=wrap;html=1;" vertex="1" parent="1">
          <mxGeometry x="284" y="452" width="40" height="29" as="geometry" />
        </mxCell>
        <mxCell id="GZrmVflzHb7Xg0ygnJ54-69" value="" style="edgeStyle=orthogonalEdgeStyle;rounded=0;orthogonalLoop=1;jettySize=auto;html=1;" edge="1" parent="1" source="GZrmVflzHb7Xg0ygnJ54-27" target="GZrmVflzHb7Xg0ygnJ54-60">
          <mxGeometry relative="1" as="geometry" />
        </mxCell>
        <mxCell id="GZrmVflzHb7Xg0ygnJ54-27" value="blue" style="rounded=1;whiteSpace=wrap;html=1;" vertex="1" parent="1">
          <mxGeometry x="367" y="452" width="50" height="29" as="geometry" />
        </mxCell>
        <mxCell id="GZrmVflzHb7Xg0ygnJ54-28" value="200" style="rounded=0;whiteSpace=wrap;html=1;" vertex="1" parent="1">
          <mxGeometry x="417" y="452" width="40" height="29" as="geometry" />
        </mxCell>
        <mxCell id="GZrmVflzHb7Xg0ygnJ54-70" value="" style="edgeStyle=orthogonalEdgeStyle;rounded=0;orthogonalLoop=1;jettySize=auto;html=1;" edge="1" parent="1" source="GZrmVflzHb7Xg0ygnJ54-29" target="GZrmVflzHb7Xg0ygnJ54-61">
          <mxGeometry relative="1" as="geometry" />
        </mxCell>
        <mxCell id="GZrmVflzHb7Xg0ygnJ54-29" value="yellow" style="rounded=1;whiteSpace=wrap;html=1;" vertex="1" parent="1">
          <mxGeometry x="492" y="452" width="50" height="29" as="geometry" />
        </mxCell>
        <mxCell id="GZrmVflzHb7Xg0ygnJ54-30" value="300" style="rounded=0;whiteSpace=wrap;html=1;" vertex="1" parent="1">
          <mxGeometry x="542" y="452" width="40" height="29" as="geometry" />
        </mxCell>
        <mxCell id="GZrmVflzHb7Xg0ygnJ54-71" value="" style="edgeStyle=orthogonalEdgeStyle;rounded=0;orthogonalLoop=1;jettySize=auto;html=1;" edge="1" parent="1" source="GZrmVflzHb7Xg0ygnJ54-33" target="GZrmVflzHb7Xg0ygnJ54-62">
          <mxGeometry relative="1" as="geometry" />
        </mxCell>
        <mxCell id="GZrmVflzHb7Xg0ygnJ54-33" value="violet" style="rounded=1;whiteSpace=wrap;html=1;" vertex="1" parent="1">
          <mxGeometry x="621" y="452" width="50" height="29" as="geometry" />
        </mxCell>
        <mxCell id="GZrmVflzHb7Xg0ygnJ54-34" value="400" style="rounded=0;whiteSpace=wrap;html=1;" vertex="1" parent="1">
          <mxGeometry x="671" y="452" width="40" height="29" as="geometry" />
        </mxCell>
        <mxCell id="GZrmVflzHb7Xg0ygnJ54-43" value="&lt;font style=&quot;font-size: 19px;&quot;&gt;glassColor&lt;/font&gt;" style="rounded=0;whiteSpace=wrap;html=1;" vertex="1" parent="1">
          <mxGeometry x="27" y="280" width="93" height="40" as="geometry" />
        </mxCell>
        <mxCell id="GZrmVflzHb7Xg0ygnJ54-44" value="&lt;font style=&quot;font-size: 24px;&quot;&gt;*next&lt;/font&gt;" style="rounded=0;whiteSpace=wrap;html=1;" vertex="1" parent="1">
          <mxGeometry x="130" y="280" width="80" height="40" as="geometry" />
        </mxCell>
        <mxCell id="GZrmVflzHb7Xg0ygnJ54-45" value="&lt;font style=&quot;font-size: 19px;&quot;&gt;glassColor&lt;/font&gt;" style="rounded=0;whiteSpace=wrap;html=1;" vertex="1" parent="1">
          <mxGeometry x="220" y="280" width="93" height="40" as="geometry" />
        </mxCell>
        <mxCell id="GZrmVflzHb7Xg0ygnJ54-46" value="&lt;font style=&quot;font-size: 24px;&quot;&gt;*next&lt;/font&gt;" style="rounded=0;whiteSpace=wrap;html=1;" vertex="1" parent="1">
          <mxGeometry x="323" y="280" width="80" height="40" as="geometry" />
        </mxCell>
        <mxCell id="GZrmVflzHb7Xg0ygnJ54-47" value="&lt;font style=&quot;font-size: 19px;&quot;&gt;glassColor&lt;/font&gt;" style="rounded=0;whiteSpace=wrap;html=1;" vertex="1" parent="1">
          <mxGeometry x="440" y="280" width="93" height="40" as="geometry" />
        </mxCell>
        <mxCell id="GZrmVflzHb7Xg0ygnJ54-48" value="&lt;font style=&quot;font-size: 24px;&quot;&gt;*next&lt;/font&gt;" style="rounded=0;whiteSpace=wrap;html=1;" vertex="1" parent="1">
          <mxGeometry x="543" y="280" width="80" height="40" as="geometry" />
        </mxCell>
        <mxCell id="GZrmVflzHb7Xg0ygnJ54-49" value="&lt;font style=&quot;font-size: 19px;&quot;&gt;glassColor&lt;/font&gt;" style="rounded=0;whiteSpace=wrap;html=1;" vertex="1" parent="1">
          <mxGeometry x="633" y="280" width="93" height="40" as="geometry" />
        </mxCell>
        <mxCell id="GZrmVflzHb7Xg0ygnJ54-50" value="&lt;font style=&quot;font-size: 24px;&quot;&gt;*next&lt;/font&gt;" style="rounded=0;whiteSpace=wrap;html=1;" vertex="1" parent="1">
          <mxGeometry x="736" y="280" width="80" height="40" as="geometry" />
        </mxCell>
        <mxCell id="GZrmVflzHb7Xg0ygnJ54-51" value="" style="endArrow=none;html=1;rounded=0;entryX=0.5;entryY=1;entryDx=0;entryDy=0;exitX=0.5;exitY=0;exitDx=0;exitDy=0;" edge="1" parent="1" source="GZrmVflzHb7Xg0ygnJ54-43" target="GZrmVflzHb7Xg0ygnJ54-3">
          <mxGeometry width="50" height="50" relative="1" as="geometry">
            <mxPoint x="440" y="370" as="sourcePoint" />
            <mxPoint x="490" y="320" as="targetPoint" />
          </mxGeometry>
        </mxCell>
        <mxCell id="GZrmVflzHb7Xg0ygnJ54-52" value="" style="endArrow=none;html=1;rounded=0;entryX=0.5;entryY=0;entryDx=0;entryDy=0;" edge="1" parent="1" target="GZrmVflzHb7Xg0ygnJ54-44">
          <mxGeometry width="50" height="50" relative="1" as="geometry">
            <mxPoint x="140" y="220" as="sourcePoint" />
            <mxPoint x="190" y="210" as="targetPoint" />
          </mxGeometry>
        </mxCell>
        <mxCell id="GZrmVflzHb7Xg0ygnJ54-53" value="" style="endArrow=none;html=1;rounded=0;entryX=0.5;entryY=1;entryDx=0;entryDy=0;exitX=0.5;exitY=0;exitDx=0;exitDy=0;" edge="1" parent="1" source="GZrmVflzHb7Xg0ygnJ54-45" target="GZrmVflzHb7Xg0ygnJ54-4">
          <mxGeometry width="50" height="50" relative="1" as="geometry">
            <mxPoint x="280" y="290" as="sourcePoint" />
            <mxPoint x="330" y="240" as="targetPoint" />
          </mxGeometry>
        </mxCell>
        <mxCell id="GZrmVflzHb7Xg0ygnJ54-54" value="" style="endArrow=none;html=1;rounded=0;exitX=0.388;exitY=-0.1;exitDx=0;exitDy=0;exitPerimeter=0;" edge="1" parent="1" source="GZrmVflzHb7Xg0ygnJ54-46">
          <mxGeometry width="50" height="50" relative="1" as="geometry">
            <mxPoint x="440" y="370" as="sourcePoint" />
            <mxPoint x="300" y="220" as="targetPoint" />
          </mxGeometry>
        </mxCell>
        <mxCell id="GZrmVflzHb7Xg0ygnJ54-55" value="" style="endArrow=none;html=1;rounded=0;entryX=0.5;entryY=1;entryDx=0;entryDy=0;exitX=0.5;exitY=0;exitDx=0;exitDy=0;" edge="1" parent="1" source="GZrmVflzHb7Xg0ygnJ54-47" target="GZrmVflzHb7Xg0ygnJ54-5">
          <mxGeometry width="50" height="50" relative="1" as="geometry">
            <mxPoint x="440" y="370" as="sourcePoint" />
            <mxPoint x="490" y="320" as="targetPoint" />
          </mxGeometry>
        </mxCell>
        <mxCell id="GZrmVflzHb7Xg0ygnJ54-56" value="" style="endArrow=none;html=1;rounded=0;entryX=0.5;entryY=1;entryDx=0;entryDy=0;exitX=0.5;exitY=0;exitDx=0;exitDy=0;" edge="1" parent="1" source="GZrmVflzHb7Xg0ygnJ54-48" target="GZrmVflzHb7Xg0ygnJ54-5">
          <mxGeometry width="50" height="50" relative="1" as="geometry">
            <mxPoint x="440" y="370" as="sourcePoint" />
            <mxPoint x="490" y="320" as="targetPoint" />
          </mxGeometry>
        </mxCell>
        <mxCell id="GZrmVflzHb7Xg0ygnJ54-57" value="" style="endArrow=none;html=1;rounded=0;entryX=0.5;entryY=1;entryDx=0;entryDy=0;exitX=0.5;exitY=0;exitDx=0;exitDy=0;" edge="1" parent="1" source="GZrmVflzHb7Xg0ygnJ54-49" target="GZrmVflzHb7Xg0ygnJ54-6">
          <mxGeometry width="50" height="50" relative="1" as="geometry">
            <mxPoint x="440" y="370" as="sourcePoint" />
            <mxPoint x="490" y="320" as="targetPoint" />
          </mxGeometry>
        </mxCell>
        <mxCell id="GZrmVflzHb7Xg0ygnJ54-58" value="" style="endArrow=none;html=1;rounded=0;exitX=0.5;exitY=0;exitDx=0;exitDy=0;" edge="1" parent="1" source="GZrmVflzHb7Xg0ygnJ54-50">
          <mxGeometry width="50" height="50" relative="1" as="geometry">
            <mxPoint x="440" y="370" as="sourcePoint" />
            <mxPoint x="700" y="220" as="targetPoint" />
          </mxGeometry>
        </mxCell>
        <mxCell id="GZrmVflzHb7Xg0ygnJ54-59" value="100" style="text;html=1;align=center;verticalAlign=middle;resizable=0;points=[];autosize=1;strokeColor=none;fillColor=none;" vertex="1" parent="1">
          <mxGeometry x="128" y="480" width="40" height="30" as="geometry" />
        </mxCell>
        <mxCell id="GZrmVflzHb7Xg0ygnJ54-60" value="200" style="text;html=1;align=center;verticalAlign=middle;resizable=0;points=[];autosize=1;strokeColor=none;fillColor=none;" vertex="1" parent="1">
          <mxGeometry x="260" y="480" width="40" height="30" as="geometry" />
        </mxCell>
        <mxCell id="GZrmVflzHb7Xg0ygnJ54-61" value="300" style="text;html=1;align=center;verticalAlign=middle;resizable=0;points=[];autosize=1;strokeColor=none;fillColor=none;" vertex="1" parent="1">
          <mxGeometry x="396" y="480" width="40" height="30" as="geometry" />
        </mxCell>
        <mxCell id="GZrmVflzHb7Xg0ygnJ54-62" value="400" style="text;html=1;align=center;verticalAlign=middle;resizable=0;points=[];autosize=1;strokeColor=none;fillColor=none;" vertex="1" parent="1">
          <mxGeometry x="518" y="480" width="40" height="30" as="geometry" />
        </mxCell>
        <mxCell id="GZrmVflzHb7Xg0ygnJ54-63" value="500" style="text;html=1;align=center;verticalAlign=middle;resizable=0;points=[];autosize=1;strokeColor=none;fillColor=none;" vertex="1" parent="1">
          <mxGeometry x="650" y="480" width="40" height="30" as="geometry" />
        </mxCell>
        <mxCell id="GZrmVflzHb7Xg0ygnJ54-65" value="&lt;font style=&quot;font-size: 21px;&quot;&gt;top&lt;/font&gt;" style="text;html=1;align=center;verticalAlign=middle;resizable=0;points=[];autosize=1;strokeColor=none;fillColor=none;" vertex="1" parent="1">
          <mxGeometry x="751" y="385" width="50" height="40" as="geometry" />
        </mxCell>
        <mxCell id="GZrmVflzHb7Xg0ygnJ54-66" value="" style="endArrow=classic;html=1;rounded=0;" edge="1" parent="1">
          <mxGeometry width="50" height="50" relative="1" as="geometry">
            <mxPoint x="714" y="465" as="sourcePoint" />
            <mxPoint x="764" y="415" as="targetPoint" />
          </mxGeometry>
        </mxCell>
        <mxCell id="GZrmVflzHb7Xg0ygnJ54-72" value="&lt;font style=&quot;font-size: 24px;&quot;&gt;&lt;b&gt;&lt;i&gt;&lt;u&gt;Enqueue operation using stack&lt;/u&gt;&lt;/i&gt;&lt;/b&gt;&lt;/font&gt;" style="text;html=1;align=center;verticalAlign=middle;resizable=0;points=[];autosize=1;strokeColor=none;fillColor=none;" vertex="1" parent="1">
          <mxGeometry x="220" y="365" width="380" height="40" as="geometry" />
        </mxCell>
        <mxCell id="GZrmVflzHb7Xg0ygnJ54-73" value="&lt;font style=&quot;font-size: 24px;&quot;&gt;&lt;b&gt;&lt;i&gt;&lt;u&gt;Reverse stack&lt;/u&gt;&lt;/i&gt;&lt;/b&gt;&lt;/font&gt;" style="text;html=1;align=center;verticalAlign=middle;resizable=0;points=[];autosize=1;strokeColor=none;fillColor=none;" vertex="1" parent="1">
          <mxGeometry x="320" y="549" width="180" height="40" as="geometry" />
        </mxCell>
        <mxCell id="GZrmVflzHb7Xg0ygnJ54-74" value="violet" style="rounded=1;whiteSpace=wrap;html=1;" vertex="1" parent="1">
          <mxGeometry x="98" y="628" width="50" height="30" as="geometry" />
        </mxCell>
        <mxCell id="GZrmVflzHb7Xg0ygnJ54-75" value="NULL" style="rounded=0;whiteSpace=wrap;html=1;" vertex="1" parent="1">
          <mxGeometry x="148" y="628" width="40" height="29" as="geometry" />
        </mxCell>
        <mxCell id="GZrmVflzHb7Xg0ygnJ54-76" value="" style="edgeStyle=orthogonalEdgeStyle;rounded=0;orthogonalLoop=1;jettySize=auto;html=1;" edge="1" source="GZrmVflzHb7Xg0ygnJ54-77" target="GZrmVflzHb7Xg0ygnJ54-88" parent="1">
          <mxGeometry relative="1" as="geometry" />
        </mxCell>
        <mxCell id="GZrmVflzHb7Xg0ygnJ54-77" value="yellow" style="rounded=1;whiteSpace=wrap;html=1;" vertex="1" parent="1">
          <mxGeometry x="234" y="628" width="50" height="29" as="geometry" />
        </mxCell>
        <mxCell id="GZrmVflzHb7Xg0ygnJ54-78" value="500" style="rounded=0;whiteSpace=wrap;html=1;" vertex="1" parent="1">
          <mxGeometry x="284" y="628" width="40" height="29" as="geometry" />
        </mxCell>
        <mxCell id="GZrmVflzHb7Xg0ygnJ54-79" value="" style="edgeStyle=orthogonalEdgeStyle;rounded=0;orthogonalLoop=1;jettySize=auto;html=1;" edge="1" source="GZrmVflzHb7Xg0ygnJ54-80" target="GZrmVflzHb7Xg0ygnJ54-89" parent="1">
          <mxGeometry relative="1" as="geometry" />
        </mxCell>
        <mxCell id="GZrmVflzHb7Xg0ygnJ54-80" value="blue" style="rounded=1;whiteSpace=wrap;html=1;" vertex="1" parent="1">
          <mxGeometry x="367" y="628" width="50" height="29" as="geometry" />
        </mxCell>
        <mxCell id="GZrmVflzHb7Xg0ygnJ54-81" value="400" style="rounded=0;whiteSpace=wrap;html=1;" vertex="1" parent="1">
          <mxGeometry x="417" y="628" width="40" height="29" as="geometry" />
        </mxCell>
        <mxCell id="GZrmVflzHb7Xg0ygnJ54-82" value="" style="edgeStyle=orthogonalEdgeStyle;rounded=0;orthogonalLoop=1;jettySize=auto;html=1;" edge="1" source="GZrmVflzHb7Xg0ygnJ54-83" target="GZrmVflzHb7Xg0ygnJ54-90" parent="1">
          <mxGeometry relative="1" as="geometry" />
        </mxCell>
        <mxCell id="GZrmVflzHb7Xg0ygnJ54-83" value="green" style="rounded=1;whiteSpace=wrap;html=1;" vertex="1" parent="1">
          <mxGeometry x="492" y="628" width="50" height="29" as="geometry" />
        </mxCell>
        <mxCell id="GZrmVflzHb7Xg0ygnJ54-84" value="300" style="rounded=0;whiteSpace=wrap;html=1;" vertex="1" parent="1">
          <mxGeometry x="542" y="628" width="40" height="29" as="geometry" />
        </mxCell>
        <mxCell id="GZrmVflzHb7Xg0ygnJ54-85" value="" style="edgeStyle=orthogonalEdgeStyle;rounded=0;orthogonalLoop=1;jettySize=auto;html=1;" edge="1" source="GZrmVflzHb7Xg0ygnJ54-86" target="GZrmVflzHb7Xg0ygnJ54-91" parent="1">
          <mxGeometry relative="1" as="geometry" />
        </mxCell>
        <mxCell id="GZrmVflzHb7Xg0ygnJ54-86" value="red" style="rounded=1;whiteSpace=wrap;html=1;" vertex="1" parent="1">
          <mxGeometry x="621" y="628" width="50" height="29" as="geometry" />
        </mxCell>
        <mxCell id="GZrmVflzHb7Xg0ygnJ54-87" value="200" style="rounded=0;whiteSpace=wrap;html=1;" vertex="1" parent="1">
          <mxGeometry x="671" y="628" width="40" height="29" as="geometry" />
        </mxCell>
        <mxCell id="GZrmVflzHb7Xg0ygnJ54-88" value="500" style="text;html=1;align=center;verticalAlign=middle;resizable=0;points=[];autosize=1;strokeColor=none;fillColor=none;" vertex="1" parent="1">
          <mxGeometry x="128" y="656" width="40" height="30" as="geometry" />
        </mxCell>
        <mxCell id="GZrmVflzHb7Xg0ygnJ54-89" value="400" style="text;html=1;align=center;verticalAlign=middle;resizable=0;points=[];autosize=1;strokeColor=none;fillColor=none;" vertex="1" parent="1">
          <mxGeometry x="260" y="656" width="40" height="30" as="geometry" />
        </mxCell>
        <mxCell id="GZrmVflzHb7Xg0ygnJ54-90" value="300" style="text;html=1;align=center;verticalAlign=middle;resizable=0;points=[];autosize=1;strokeColor=none;fillColor=none;" vertex="1" parent="1">
          <mxGeometry x="396" y="656" width="40" height="30" as="geometry" />
        </mxCell>
        <mxCell id="GZrmVflzHb7Xg0ygnJ54-91" value="200" style="text;html=1;align=center;verticalAlign=middle;resizable=0;points=[];autosize=1;strokeColor=none;fillColor=none;" vertex="1" parent="1">
          <mxGeometry x="518" y="656" width="40" height="30" as="geometry" />
        </mxCell>
        <mxCell id="GZrmVflzHb7Xg0ygnJ54-92" value="100" style="text;html=1;align=center;verticalAlign=middle;resizable=0;points=[];autosize=1;strokeColor=none;fillColor=none;" vertex="1" parent="1">
          <mxGeometry x="650" y="656" width="40" height="30" as="geometry" />
        </mxCell>
        <mxCell id="GZrmVflzHb7Xg0ygnJ54-93" value="" style="endArrow=classic;html=1;rounded=0;" edge="1" parent="1">
          <mxGeometry width="50" height="50" relative="1" as="geometry">
            <mxPoint x="714" y="641" as="sourcePoint" />
            <mxPoint x="764" y="591" as="targetPoint" />
          </mxGeometry>
        </mxCell>
        <mxCell id="GZrmVflzHb7Xg0ygnJ54-94" value="&lt;font style=&quot;font-size: 21px;&quot;&gt;top&lt;/font&gt;" style="text;html=1;align=center;verticalAlign=middle;resizable=0;points=[];autosize=1;strokeColor=none;fillColor=none;" vertex="1" parent="1">
          <mxGeometry x="751" y="551" width="50" height="40" as="geometry" />
        </mxCell>
        <mxCell id="GZrmVflzHb7Xg0ygnJ54-95" value="&lt;font style=&quot;font-size: 24px;&quot;&gt;&lt;b&gt;&lt;i&gt;&lt;u&gt;dequeue from reverse stack&lt;/u&gt;&lt;/i&gt;&lt;/b&gt;&lt;/font&gt;" style="text;html=1;align=center;verticalAlign=middle;resizable=0;points=[];autosize=1;strokeColor=none;fillColor=none;" vertex="1" parent="1">
          <mxGeometry x="240" y="718" width="340" height="40" as="geometry" />
        </mxCell>
        <mxCell id="GZrmVflzHb7Xg0ygnJ54-96" value="violet" style="rounded=1;whiteSpace=wrap;html=1;" vertex="1" parent="1">
          <mxGeometry x="98" y="797" width="50" height="30" as="geometry" />
        </mxCell>
        <mxCell id="GZrmVflzHb7Xg0ygnJ54-97" value="NULL" style="rounded=0;whiteSpace=wrap;html=1;" vertex="1" parent="1">
          <mxGeometry x="148" y="797" width="40" height="29" as="geometry" />
        </mxCell>
        <mxCell id="GZrmVflzHb7Xg0ygnJ54-98" value="" style="edgeStyle=orthogonalEdgeStyle;rounded=0;orthogonalLoop=1;jettySize=auto;html=1;" edge="1" source="GZrmVflzHb7Xg0ygnJ54-99" target="GZrmVflzHb7Xg0ygnJ54-110" parent="1">
          <mxGeometry relative="1" as="geometry" />
        </mxCell>
        <mxCell id="GZrmVflzHb7Xg0ygnJ54-99" value="yellow" style="rounded=1;whiteSpace=wrap;html=1;" vertex="1" parent="1">
          <mxGeometry x="234" y="797" width="50" height="29" as="geometry" />
        </mxCell>
        <mxCell id="GZrmVflzHb7Xg0ygnJ54-100" value="500" style="rounded=0;whiteSpace=wrap;html=1;" vertex="1" parent="1">
          <mxGeometry x="284" y="797" width="40" height="29" as="geometry" />
        </mxCell>
        <mxCell id="GZrmVflzHb7Xg0ygnJ54-101" value="" style="edgeStyle=orthogonalEdgeStyle;rounded=0;orthogonalLoop=1;jettySize=auto;html=1;" edge="1" source="GZrmVflzHb7Xg0ygnJ54-102" target="GZrmVflzHb7Xg0ygnJ54-111" parent="1">
          <mxGeometry relative="1" as="geometry" />
        </mxCell>
        <mxCell id="GZrmVflzHb7Xg0ygnJ54-102" value="blue" style="rounded=1;whiteSpace=wrap;html=1;" vertex="1" parent="1">
          <mxGeometry x="367" y="797" width="50" height="29" as="geometry" />
        </mxCell>
        <mxCell id="GZrmVflzHb7Xg0ygnJ54-103" value="400" style="rounded=0;whiteSpace=wrap;html=1;" vertex="1" parent="1">
          <mxGeometry x="417" y="797" width="40" height="29" as="geometry" />
        </mxCell>
        <mxCell id="GZrmVflzHb7Xg0ygnJ54-104" value="" style="edgeStyle=orthogonalEdgeStyle;rounded=0;orthogonalLoop=1;jettySize=auto;html=1;" edge="1" source="GZrmVflzHb7Xg0ygnJ54-105" target="GZrmVflzHb7Xg0ygnJ54-112" parent="1">
          <mxGeometry relative="1" as="geometry" />
        </mxCell>
        <mxCell id="GZrmVflzHb7Xg0ygnJ54-105" value="green" style="rounded=1;whiteSpace=wrap;html=1;" vertex="1" parent="1">
          <mxGeometry x="492" y="797" width="50" height="29" as="geometry" />
        </mxCell>
        <mxCell id="GZrmVflzHb7Xg0ygnJ54-106" value="300" style="rounded=0;whiteSpace=wrap;html=1;" vertex="1" parent="1">
          <mxGeometry x="542" y="797" width="40" height="29" as="geometry" />
        </mxCell>
        <mxCell id="GZrmVflzHb7Xg0ygnJ54-107" value="" style="edgeStyle=orthogonalEdgeStyle;rounded=0;orthogonalLoop=1;jettySize=auto;html=1;" edge="1" source="GZrmVflzHb7Xg0ygnJ54-108" target="GZrmVflzHb7Xg0ygnJ54-113" parent="1">
          <mxGeometry relative="1" as="geometry" />
        </mxCell>
        <mxCell id="GZrmVflzHb7Xg0ygnJ54-108" value="red" style="rounded=1;whiteSpace=wrap;html=1;" vertex="1" parent="1">
          <mxGeometry x="621" y="797" width="50" height="29" as="geometry" />
        </mxCell>
        <mxCell id="GZrmVflzHb7Xg0ygnJ54-109" value="200" style="rounded=0;whiteSpace=wrap;html=1;" vertex="1" parent="1">
          <mxGeometry x="671" y="797" width="40" height="29" as="geometry" />
        </mxCell>
        <mxCell id="GZrmVflzHb7Xg0ygnJ54-110" value="500" style="text;html=1;align=center;verticalAlign=middle;resizable=0;points=[];autosize=1;strokeColor=none;fillColor=none;" vertex="1" parent="1">
          <mxGeometry x="128" y="825" width="40" height="30" as="geometry" />
        </mxCell>
        <mxCell id="GZrmVflzHb7Xg0ygnJ54-111" value="400" style="text;html=1;align=center;verticalAlign=middle;resizable=0;points=[];autosize=1;strokeColor=none;fillColor=none;" vertex="1" parent="1">
          <mxGeometry x="260" y="825" width="40" height="30" as="geometry" />
        </mxCell>
        <mxCell id="GZrmVflzHb7Xg0ygnJ54-112" value="300" style="text;html=1;align=center;verticalAlign=middle;resizable=0;points=[];autosize=1;strokeColor=none;fillColor=none;" vertex="1" parent="1">
          <mxGeometry x="396" y="825" width="40" height="30" as="geometry" />
        </mxCell>
        <mxCell id="GZrmVflzHb7Xg0ygnJ54-113" value="200" style="text;html=1;align=center;verticalAlign=middle;resizable=0;points=[];autosize=1;strokeColor=none;fillColor=none;" vertex="1" parent="1">
          <mxGeometry x="518" y="825" width="40" height="30" as="geometry" />
        </mxCell>
        <mxCell id="GZrmVflzHb7Xg0ygnJ54-114" value="100" style="text;html=1;align=center;verticalAlign=middle;resizable=0;points=[];autosize=1;strokeColor=none;fillColor=none;" vertex="1" parent="1">
          <mxGeometry x="650" y="825" width="40" height="30" as="geometry" />
        </mxCell>
        <mxCell id="GZrmVflzHb7Xg0ygnJ54-115" value="" style="endArrow=classic;html=1;rounded=0;" edge="1" parent="1">
          <mxGeometry width="50" height="50" relative="1" as="geometry">
            <mxPoint x="714" y="810" as="sourcePoint" />
            <mxPoint x="764" y="760" as="targetPoint" />
          </mxGeometry>
        </mxCell>
        <mxCell id="GZrmVflzHb7Xg0ygnJ54-116" value="&lt;font style=&quot;font-size: 21px;&quot;&gt;top&lt;/font&gt;" style="text;html=1;align=center;verticalAlign=middle;resizable=0;points=[];autosize=1;strokeColor=none;fillColor=none;" vertex="1" parent="1">
          <mxGeometry x="751" y="720" width="50" height="40" as="geometry" />
        </mxCell>
        <mxCell id="GZrmVflzHb7Xg0ygnJ54-117" value="&lt;font style=&quot;font-size: 21px;&quot;&gt;top&lt;/font&gt;" style="text;html=1;align=center;verticalAlign=middle;resizable=0;points=[];autosize=1;strokeColor=none;fillColor=none;" vertex="1" parent="1">
          <mxGeometry x="600" y="720" width="50" height="40" as="geometry" />
        </mxCell>
        <mxCell id="GZrmVflzHb7Xg0ygnJ54-118" value="" style="endArrow=classic;html=1;rounded=0;exitX=0;exitY=0;exitDx=0;exitDy=0;" edge="1" parent="1" source="GZrmVflzHb7Xg0ygnJ54-106">
          <mxGeometry width="50" height="50" relative="1" as="geometry">
            <mxPoint x="410" y="757" as="sourcePoint" />
            <mxPoint x="610" y="747" as="targetPoint" />
          </mxGeometry>
        </mxCell>
        <mxCell id="GZrmVflzHb7Xg0ygnJ54-119" value="&lt;font style=&quot;font-size: 18px;&quot;&gt;free(ptr)&lt;/font&gt;" style="text;html=1;align=center;verticalAlign=middle;resizable=0;points=[];autosize=1;strokeColor=none;fillColor=none;" vertex="1" parent="1">
          <mxGeometry x="725" y="820" width="90" height="40" as="geometry" />
        </mxCell>
        <mxCell id="GZrmVflzHb7Xg0ygnJ54-120" value="" style="endArrow=classic;html=1;rounded=0;entryX=0.167;entryY=0.425;entryDx=0;entryDy=0;entryPerimeter=0;exitX=1;exitY=0.5;exitDx=0;exitDy=0;" edge="1" parent="1" source="GZrmVflzHb7Xg0ygnJ54-109" target="GZrmVflzHb7Xg0ygnJ54-119">
          <mxGeometry width="50" height="50" relative="1" as="geometry">
            <mxPoint x="410" y="747" as="sourcePoint" />
            <mxPoint x="460" y="697" as="targetPoint" />
          </mxGeometry>
        </mxCell>
        <mxCell id="GZrmVflzHb7Xg0ygnJ54-121" value="&lt;font style=&quot;font-size: 24px;&quot;&gt;&lt;b&gt;&lt;i&gt;&lt;u&gt;final result&lt;/u&gt;&lt;/i&gt;&lt;/b&gt;&lt;/font&gt;" style="text;html=1;align=center;verticalAlign=middle;resizable=0;points=[];autosize=1;strokeColor=none;fillColor=none;" vertex="1" parent="1">
          <mxGeometry x="340" y="880" width="140" height="40" as="geometry" />
        </mxCell>
        <mxCell id="GZrmVflzHb7Xg0ygnJ54-122" value="violet" style="rounded=1;whiteSpace=wrap;html=1;" vertex="1" parent="1">
          <mxGeometry x="184" y="969" width="50" height="30" as="geometry" />
        </mxCell>
        <mxCell id="GZrmVflzHb7Xg0ygnJ54-123" value="NULL" style="rounded=0;whiteSpace=wrap;html=1;" vertex="1" parent="1">
          <mxGeometry x="234" y="969" width="40" height="29" as="geometry" />
        </mxCell>
        <mxCell id="GZrmVflzHb7Xg0ygnJ54-124" value="" style="edgeStyle=orthogonalEdgeStyle;rounded=0;orthogonalLoop=1;jettySize=auto;html=1;" edge="1" source="GZrmVflzHb7Xg0ygnJ54-125" target="GZrmVflzHb7Xg0ygnJ54-136" parent="1">
          <mxGeometry relative="1" as="geometry" />
        </mxCell>
        <mxCell id="GZrmVflzHb7Xg0ygnJ54-125" value="yellow" style="rounded=1;whiteSpace=wrap;html=1;" vertex="1" parent="1">
          <mxGeometry x="320" y="969" width="50" height="29" as="geometry" />
        </mxCell>
        <mxCell id="GZrmVflzHb7Xg0ygnJ54-126" value="500" style="rounded=0;whiteSpace=wrap;html=1;" vertex="1" parent="1">
          <mxGeometry x="370" y="969" width="40" height="29" as="geometry" />
        </mxCell>
        <mxCell id="GZrmVflzHb7Xg0ygnJ54-127" value="" style="edgeStyle=orthogonalEdgeStyle;rounded=0;orthogonalLoop=1;jettySize=auto;html=1;" edge="1" source="GZrmVflzHb7Xg0ygnJ54-128" target="GZrmVflzHb7Xg0ygnJ54-137" parent="1">
          <mxGeometry relative="1" as="geometry" />
        </mxCell>
        <mxCell id="GZrmVflzHb7Xg0ygnJ54-128" value="blue" style="rounded=1;whiteSpace=wrap;html=1;" vertex="1" parent="1">
          <mxGeometry x="453" y="969" width="50" height="29" as="geometry" />
        </mxCell>
        <mxCell id="GZrmVflzHb7Xg0ygnJ54-129" value="400" style="rounded=0;whiteSpace=wrap;html=1;" vertex="1" parent="1">
          <mxGeometry x="503" y="969" width="40" height="29" as="geometry" />
        </mxCell>
        <mxCell id="GZrmVflzHb7Xg0ygnJ54-130" value="" style="edgeStyle=orthogonalEdgeStyle;rounded=0;orthogonalLoop=1;jettySize=auto;html=1;" edge="1" source="GZrmVflzHb7Xg0ygnJ54-131" target="GZrmVflzHb7Xg0ygnJ54-138" parent="1">
          <mxGeometry relative="1" as="geometry" />
        </mxCell>
        <mxCell id="GZrmVflzHb7Xg0ygnJ54-131" value="green" style="rounded=1;whiteSpace=wrap;html=1;" vertex="1" parent="1">
          <mxGeometry x="578" y="969" width="50" height="29" as="geometry" />
        </mxCell>
        <mxCell id="GZrmVflzHb7Xg0ygnJ54-132" value="300" style="rounded=0;whiteSpace=wrap;html=1;" vertex="1" parent="1">
          <mxGeometry x="628" y="969" width="40" height="29" as="geometry" />
        </mxCell>
        <mxCell id="GZrmVflzHb7Xg0ygnJ54-136" value="500" style="text;html=1;align=center;verticalAlign=middle;resizable=0;points=[];autosize=1;strokeColor=none;fillColor=none;" vertex="1" parent="1">
          <mxGeometry x="214" y="997" width="40" height="30" as="geometry" />
        </mxCell>
        <mxCell id="GZrmVflzHb7Xg0ygnJ54-137" value="400" style="text;html=1;align=center;verticalAlign=middle;resizable=0;points=[];autosize=1;strokeColor=none;fillColor=none;" vertex="1" parent="1">
          <mxGeometry x="346" y="997" width="40" height="30" as="geometry" />
        </mxCell>
        <mxCell id="GZrmVflzHb7Xg0ygnJ54-138" value="300" style="text;html=1;align=center;verticalAlign=middle;resizable=0;points=[];autosize=1;strokeColor=none;fillColor=none;" vertex="1" parent="1">
          <mxGeometry x="482" y="997" width="40" height="30" as="geometry" />
        </mxCell>
        <mxCell id="GZrmVflzHb7Xg0ygnJ54-139" value="200" style="text;html=1;align=center;verticalAlign=middle;resizable=0;points=[];autosize=1;strokeColor=none;fillColor=none;" vertex="1" parent="1">
          <mxGeometry x="604" y="997" width="40" height="30" as="geometry" />
        </mxCell>
        <mxCell id="GZrmVflzHb7Xg0ygnJ54-143" value="&lt;font style=&quot;font-size: 21px;&quot;&gt;top&lt;/font&gt;" style="text;html=1;align=center;verticalAlign=middle;resizable=0;points=[];autosize=1;strokeColor=none;fillColor=none;" vertex="1" parent="1">
          <mxGeometry x="686" y="892" width="50" height="40" as="geometry" />
        </mxCell>
        <mxCell id="GZrmVflzHb7Xg0ygnJ54-144" value="" style="endArrow=classic;html=1;rounded=0;exitX=0;exitY=0;exitDx=0;exitDy=0;" edge="1" source="GZrmVflzHb7Xg0ygnJ54-132" parent="1">
          <mxGeometry width="50" height="50" relative="1" as="geometry">
            <mxPoint x="496" y="929" as="sourcePoint" />
            <mxPoint x="696" y="919" as="targetPoint" />
          </mxGeometry>
        </mxCell>
        <mxCell id="GZrmVflzHb7Xg0ygnJ54-147" value="&lt;font style=&quot;font-size: 20px;&quot;&gt;Then print the stack&lt;/font&gt;" style="text;html=1;align=center;verticalAlign=middle;resizable=0;points=[];autosize=1;strokeColor=none;fillColor=none;" vertex="1" parent="1">
          <mxGeometry x="333" y="1023" width="200" height="40" as="geometry" />
        </mxCell>
      </root>
    </mxGraphModel>
  </diagram>
</mxfile>
